<svg xmlns="http://www.w3.org/2000/svg" width="800" height="380" viewBox="0 0 800 380" style="font-family:'IBM Plex Mono','Courier New',monospace">
  <defs>
    <pattern id="dot-grid" x="0" y="0" width="18" height="18" patternUnits="userSpaceOnUse">
      <circle cx="1" cy="1" r="0.8" fill="rgba(255,255,255,0.055)"/>
    </pattern>
    <clipPath id="round"><rect width="800" height="380" rx="8"/></clipPath>
    <linearGradient id="bar-green" x1="0" y1="0" x2="1" y2="0">
      <stop offset="0%" stop-color="#00FF6A"/>
      <stop offset="100%" stop-color="#00CC55"/>
    </linearGradient>
    <linearGradient id="bar-yellow" x1="0" y1="0" x2="1" y2="0">
      <stop offset="0%" stop-color="#F5C400"/>
      <stop offset="100%" stop-color="#D4A800"/>
    </linearGradient>
    <linearGradient id="bar-blue" x1="0" y1="0" x2="1" y2="0">
      <stop offset="0%" stop-color="#58A6FF"/>
      <stop offset="100%" stop-color="#3B82F6"/>
    </linearGradient>
  </defs>

  <!-- Base -->
  <rect width="800" height="380" rx="8" fill="#111214" clip-path="url(#round)"/>
  <rect width="800" height="380" fill="url(#dot-grid)" clip-path="url(#round)"/>
  <rect width="800" height="380" rx="8" fill="none" stroke="#1E2124" stroke-width="1"/>

  <!-- Dashboard header bar -->
  <rect x="0" y="0" width="800" height="38" rx="8" fill="#141618"/>
  <rect x="0" y="30" width="800" height="8" fill="#141618"/>
  <rect x="0" y="37" width="800" height="1" fill="#1E2124"/>

  <!-- Live dot -->
  <circle cx="20" cy="19" r="4" fill="#00FF6A">
    <animate attributeName="opacity" values="1;0.2;1" dur="1.8s" repeatCount="indefinite"/>
  </circle>
  <text x="30" y="23" font-size="9" fill="#00FF6A" font-weight="600" letter-spacing="0.08em">LIVE</text>

  <!-- Title -->
  <text x="60" y="23" font-size="10" fill="#7A808A" letter-spacing="0.04em">wtfbrubs — infra &amp; devops · overview</text>

  <!-- Window dots -->
  <circle cx="754" cy="19" r="5" fill="#FF5F57"/>
  <circle cx="770" cy="19" r="5" fill="#FEBC2E"/>
  <circle cx="786" cy="19" r="5" fill="#28C840"/>

  <!-- ═══ LEFT COLUMN ═══ -->

  <!-- Section label: Stack -->
  <text x="20" y="65" font-size="9" fill="#7A808A" letter-spacing="0.08em">// stack multi-cloud</text>

  <!-- Tech tags card -->
  <rect x="20" y="72" width="370" height="62" rx="4" fill="#141618" stroke="#1E2124" stroke-width="1"/>

  <!-- AWS tag -->
  <rect x="32" y="84" width="36" height="16" rx="2" fill="#141618" stroke="#1E2124" stroke-width="1"/>
  <text x="50" y="95" font-size="8" fill="#FF9900" text-anchor="middle" letter-spacing="0.04em">AWS</text>

  <!-- Azure tag -->
  <rect x="74" y="84" width="40" height="16" rx="2" fill="#141618" stroke="#1E2124" stroke-width="1"/>
  <text x="94" y="95" font-size="8" fill="#0078D4" text-anchor="middle" letter-spacing="0.04em">Azure</text>

  <!-- GCP tag -->
  <rect x="120" y="84" width="36" height="16" rx="2" fill="#141618" stroke="#1E2124" stroke-width="1"/>
  <text x="138" y="95" font-size="8" fill="#4285F4" text-anchor="middle" letter-spacing="0.04em">GCP</text>

  <!-- OCI tag -->
  <rect x="162" y="84" width="32" height="16" rx="2" fill="#141618" stroke="#1E2124" stroke-width="1"/>
  <text x="178" y="95" font-size="8" fill="#F80000" text-anchor="middle" letter-spacing="0.04em">OCI</text>

  <!-- Kubernetes tag -->
  <rect x="200" y="84" width="70" height="16" rx="2" fill="#141618" stroke="#1E2124" stroke-width="1"/>
  <text x="235" y="95" font-size="8" fill="#326CE5" text-anchor="middle" letter-spacing="0.04em">Kubernetes</text>

  <!-- Terraform tag -->
  <rect x="276" y="84" width="58" height="16" rx="2" fill="#141618" stroke="#1E2124" stroke-width="1"/>
  <text x="305" y="95" font-size="8" fill="#7B42F6" text-anchor="middle" letter-spacing="0.04em">Terraform</text>

  <!-- Row 2 tags -->
  <rect x="32" y="106" width="42" height="16" rx="2" fill="#141618" stroke="#1E2124" stroke-width="1"/>
  <text x="53" y="117" font-size="8" fill="#8A8F96" text-anchor="middle" letter-spacing="0.04em">CI/CD</text>

  <rect x="80" y="106" width="48" height="16" rx="2" fill="#141618" stroke="#1E2124" stroke-width="1"/>
  <text x="104" y="117" font-size="8" fill="#8A8F96" text-anchor="middle" letter-spacing="0.04em">Ansible</text>

  <rect x="134" y="106" width="46" height="16" rx="2" fill="#141618" stroke="#1E2124" stroke-width="1"/>
  <text x="157" y="117" font-size="8" fill="#8A8F96" text-anchor="middle" letter-spacing="0.04em">GitOps</text>

  <rect x="186" y="106" width="46" height="16" rx="2" fill="#141618" stroke="#1E2124" stroke-width="1"/>
  <text x="209" y="117" font-size="8" fill="#8A8F96" text-anchor="middle" letter-spacing="0.04em">Docker</text>

  <rect x="238" y="106" width="56" height="16" rx="2" fill="#141618" stroke="#1E2124" stroke-width="1"/>
  <text x="266" y="117" font-size="8" fill="#8A8F96" text-anchor="middle" letter-spacing="0.04em">FinOps</text>

  <!-- Section label: Metrics -->
  <text x="20" y="154" font-size="9" fill="#7A808A" letter-spacing="0.08em">// métricas</text>

  <!-- Metric card: Experience -->
  <rect x="20" y="161" width="88" height="72" rx="4" fill="#141618" stroke="#1E2124" stroke-width="1"/>
  <text x="30" y="176" font-size="7.5" fill="#7A808A" letter-spacing="0.08em">EXPERIÊNCIA</text>
  <text x="30" y="200" font-size="24" fill="#00FF6A" font-weight="600">15+</text>
  <text x="30" y="213" font-size="7.5" fill="#7A808A">anos em cloud</text>
  <rect x="30" y="222" width="68" height="2" rx="1" fill="#1A1C1F"/>
  <rect x="30" y="222" width="68" height="2" rx="1" fill="url(#bar-green)"/>

  <!-- Metric card: Clouds -->
  <rect x="114" y="161" width="88" height="72" rx="4" fill="#141618" stroke="#1E2124" stroke-width="1"/>
  <text x="124" y="176" font-size="7.5" fill="#7A808A" letter-spacing="0.08em">CLOUDS</text>
  <text x="124" y="200" font-size="24" fill="#F5C400" font-weight="600">4</text>
  <text x="124" y="213" font-size="7.5" fill="#7A808A">provedores</text>
  <rect x="124" y="222" width="68" height="2" rx="1" fill="#1A1C1F"/>
  <rect x="124" y="222" width="68" height="2" rx="1" fill="url(#bar-yellow)"/>

  <!-- Metric card: SLA -->
  <rect x="208" y="161" width="88" height="72" rx="4" fill="#141618" stroke="#1E2124" stroke-width="1"/>
  <text x="218" y="176" font-size="7.5" fill="#7A808A" letter-spacing="0.08em">SLA ALVO</text>
  <text x="218" y="200" font-size="20" fill="#00FF6A" font-weight="600">99.9%</text>
  <text x="218" y="213" font-size="7.5" fill="#7A808A">disponibilidade</text>
  <rect x="218" y="222" width="68" height="2" rx="1" fill="#1A1C1F"/>
  <rect x="218" y="222" width="67.3" height="2" rx="1" fill="url(#bar-green)"/>

  <!-- Metric card: AWS SDP -->
  <rect x="302" y="161" width="88" height="72" rx="4" fill="#141618" stroke="#1E2124" stroke-width="1"/>
  <text x="312" y="176" font-size="7.5" fill="#7A808A" letter-spacing="0.08em">AWS SDP</text>
  <text x="312" y="197" font-size="14" fill="#FF9900" font-weight="600">MySQL</text>
  <text x="312" y="210" font-size="11" fill="#FF9900" font-weight="600">RDS</text>
  <text x="312" y="222" font-size="7.5" fill="#7A808A">delivered</text>
  <rect x="312" y="228" width="68" height="2" rx="1" fill="#1A1C1F"/>
  <rect x="312" y="228" width="68" height="2" rx="1" fill="url(#bar-yellow)"/>

  <!-- Section label: Monitor -->
  <text x="20" y="252" font-size="9" fill="#7A808A" letter-spacing="0.08em">// system monitor</text>

  <!-- Monitor bar -->
  <rect x="20" y="259" width="370" height="44" rx="4" fill="#141618" stroke="#1E2124" stroke-width="1"/>
  <text x="30" y="272" font-size="7.5" fill="#7A808A">cpu · network · memory</text>
  <text x="350" y="272" font-size="7" fill="#00FF6A" text-anchor="end">● active</text>

  <!-- Fake sparkline bars -->
  <rect x="30" y="278" width="3" height="16" rx="1" fill="#00FF6A" opacity="0.6"/>
  <rect x="35" y="283" width="3" height="11" rx="1" fill="#00FF6A" opacity="0.5"/>
  <rect x="40" y="275" width="3" height="19" rx="1" fill="#00FF6A" opacity="0.7"/>
  <rect x="45" y="280" width="3" height="14" rx="1" fill="#00FF6A" opacity="0.5"/>
  <rect x="50" y="278" width="3" height="16" rx="1" fill="#58A6FF" opacity="0.6"/>
  <rect x="55" y="285" width="3" height="9" rx="1" fill="#58A6FF" opacity="0.4"/>
  <rect x="60" y="276" width="3" height="18" rx="1" fill="#58A6FF" opacity="0.7"/>
  <rect x="65" y="281" width="3" height="13" rx="1" fill="#58A6FF" opacity="0.5"/>
  <rect x="70" y="279" width="3" height="15" rx="1" fill="#F5C400" opacity="0.5"/>
  <rect x="75" y="284" width="3" height="10" rx="1" fill="#F5C400" opacity="0.4"/>
  <rect x="80" y="277" width="3" height="17" rx="1" fill="#00FF6A" opacity="0.6"/>
  <rect x="85" y="282" width="3" height="12" rx="1" fill="#00FF6A" opacity="0.5"/>
  <rect x="90" y="274" width="3" height="20" rx="1" fill="#00FF6A" opacity="0.8"/>
  <rect x="95" y="280" width="3" height="14" rx="1" fill="#58A6FF" opacity="0.6"/>
  <rect x="100" y="278" width="3" height="16" rx="1" fill="#58A6FF" opacity="0.5"/>
  <rect x="105" y="285" width="3" height="9" rx="1" fill="#58A6FF" opacity="0.4"/>
  <rect x="110" y="275" width="3" height="19" rx="1" fill="#F5C400" opacity="0.6"/>
  <rect x="115" y="281" width="3" height="13" rx="1" fill="#F5C400" opacity="0.5"/>
  <rect x="120" y="279" width="3" height="15" rx="1" fill="#00FF6A" opacity="0.6"/>
  <rect x="125" y="283" width="3" height="11" rx="1" fill="#00FF6A" opacity="0.5"/>
  <rect x="130" y="276" width="3" height="18" rx="1" fill="#00FF6A" opacity="0.7"/>
  <rect x="135" y="280" width="3" height="14" rx="1" fill="#58A6FF" opacity="0.6"/>
  <rect x="140" y="274" width="3" height="20" rx="1" fill="#58A6FF" opacity="0.7"/>
  <rect x="145" y="282" width="3" height="12" rx="1" fill="#58A6FF" opacity="0.5"/>
  <rect x="150" y="278" width="3" height="16" rx="1" fill="#F5C400" opacity="0.5"/>
  <rect x="155" y="284" width="3" height="10" rx="1" fill="#F5C400" opacity="0.4"/>
  <rect x="160" y="277" width="3" height="17" rx="1" fill="#00FF6A" opacity="0.6"/>
  <rect x="165" y="280" width="3" height="14" rx="1" fill="#00FF6A" opacity="0.6"/>
  <rect x="170" y="275" width="3" height="19" rx="1" fill="#00FF6A" opacity="0.7"/>
  <rect x="175" y="283" width="3" height="11" rx="1" fill="#58A6FF" opacity="0.5"/>
  <rect x="180" y="278" width="3" height="16" rx="1" fill="#58A6FF" opacity="0.6"/>
  <rect x="185" y="285" width="3" height="9" rx="1" fill="#F5C400" opacity="0.4"/>
  <rect x="190" y="276" width="3" height="18" rx="1" fill="#F5C400" opacity="0.6"/>
  <rect x="195" y="281" width="3" height="13" rx="1" fill="#00FF6A" opacity="0.5"/>
  <rect x="200" y="279" width="3" height="15" rx="1" fill="#00FF6A" opacity="0.6"/>
  <rect x="205" y="274" width="3" height="20" rx="1" fill="#00FF6A" opacity="0.8"/>
  <rect x="210" y="283" width="3" height="11" rx="1" fill="#58A6FF" opacity="0.5"/>
  <rect x="215" y="278" width="3" height="16" rx="1" fill="#58A6FF" opacity="0.6"/>
  <rect x="220" y="280" width="3" height="14" rx="1" fill="#F5C400" opacity="0.5"/>
  <rect x="225" y="275" width="3" height="19" rx="1" fill="#F5C400" opacity="0.6"/>
  <rect x="230" y="282" width="3" height="12" rx="1" fill="#00FF6A" opacity="0.5"/>
  <rect x="235" y="277" width="3" height="17" rx="1" fill="#00FF6A" opacity="0.7"/>
  <rect x="240" y="279" width="3" height="15" rx="1" fill="#58A6FF" opacity="0.6"/>
  <rect x="245" y="284" width="3" height="10" rx="1" fill="#58A6FF" opacity="0.4"/>
  <rect x="250" y="276" width="3" height="18" rx="1" fill="#00FF6A" opacity="0.7"/>
  <rect x="255" y="280" width="3" height="14" rx="1" fill="#00FF6A" opacity="0.6"/>
  <rect x="260" y="278" width="3" height="16" rx="1" fill="#F5C400" opacity="0.5"/>
  <rect x="265" y="283" width="3" height="11" rx="1" fill="#F5C400" opacity="0.4"/>
  <rect x="270" y="275" width="3" height="19" rx="1" fill="#58A6FF" opacity="0.7"/>
  <rect x="275" y="281" width="3" height="13" rx="1" fill="#58A6FF" opacity="0.5"/>
  <rect x="280" y="279" width="3" height="15" rx="1" fill="#00FF6A" opacity="0.6"/>
  <rect x="285" y="274" width="3" height="20" rx="1" fill="#00FF6A" opacity="0.8"/>
  <rect x="290" y="282" width="3" height="12" rx="1" fill="#00FF6A" opacity="0.5"/>
  <rect x="295" y="277" width="3" height="17" rx="1" fill="#58A6FF" opacity="0.6"/>
  <rect x="300" y="280" width="3" height="14" rx="1" fill="#58A6FF" opacity="0.5"/>
  <rect x="305" y="275" width="3" height="19" rx="1" fill="#F5C400" opacity="0.6"/>
  <rect x="310" y="283" width="3" height="11" rx="1" fill="#F5C400" opacity="0.4"/>
  <rect x="315" y="278" width="3" height="16" rx="1" fill="#00FF6A" opacity="0.7"/>
  <rect x="320" y="281" width="3" height="13" rx="1" fill="#00FF6A" opacity="0.5"/>
  <rect x="325" y="276" width="3" height="18" rx="1" fill="#58A6FF" opacity="0.6"/>
  <rect x="330" y="279" width="3" height="15" rx="1" fill="#58A6FF" opacity="0.6"/>
  <rect x="335" y="274" width="3" height="20" rx="1" fill="#00FF6A" opacity="0.8"/>
  <rect x="340" y="283" width="3" height="11" rx="1" fill="#00FF6A" opacity="0.5"/>
  <rect x="345" y="278" width="3" height="16" rx="1" fill="#F5C400" opacity="0.5"/>
  <rect x="350" y="280" width="3" height="14" rx="1" fill="#F5C400" opacity="0.4"/>
  <rect x="355" y="275" width="3" height="19" rx="1" fill="#58A6FF" opacity="0.7"/>
  <rect x="360" y="282" width="3" height="12" rx="1" fill="#58A6FF" opacity="0.5"/>
  <rect x="365" y="277" width="3" height="17" rx="1" fill="#00FF6A" opacity="0.7"/>
  <rect x="370" y="279" width="3" height="15" rx="1" fill="#00FF6A" opacity="0.6"/>
  <rect x="375" y="279" width="3" height="15" rx="1" fill="#00FF6A" opacity="0.6"/>
  <rect x="380" y="275" width="3" height="19" rx="1" fill="#00FF6A" opacity="0.7"/>

  <!-- Section label: Highlights -->
  <text x="20" y="323" font-size="9" fill="#7A808A" letter-spacing="0.08em">// highlights</text>

  <!-- Highlight items -->
  <text x="30" y="340" font-size="8.5" fill="#58A6FF">▸</text>
  <text x="44" y="340" font-size="8.5" fill="#E8E8E8">AWS SDP MySQL RDS · Migration BR→US · EKS/AKS/OKE</text>

  <text x="30" y="356" font-size="8.5" fill="#00FF6A">▸</text>
  <text x="44" y="356" font-size="8.5" fill="#E8E8E8">FinOps governance · ISO 27001 · RCA ownership</text>

  <text x="30" y="372" font-size="8.5" fill="#F5C400">▸</text>
  <text x="44" y="372" font-size="8.5" fill="#E8E8E8">Oracle 11g→19c · Secrets Manager · IRSA/OIDC · KMS</text>

  <!-- ═══ RIGHT COLUMN ═══ -->

  <!-- Separator -->
  <rect x="406" y="50" width="1" height="316" fill="#1E2124"/>

  <!-- Section label: Certifications -->
  <text x="420" y="65" font-size="9" fill="#7A808A" letter-spacing="0.08em">// certificações</text>

  <!-- Cert cards -->
  <rect x="420" y="72" width="360" height="40" rx="4" fill="#141618" stroke="#1E2124" stroke-width="1"/>
  <rect x="420" y="72" width="3" height="40" rx="1" fill="#FF9900"/>
  <text x="432" y="86" font-size="8.5" fill="#FF9900" font-weight="600">AWS Solutions Architect – Associate</text>
  <text x="432" y="101" font-size="7.5" fill="#7A808A">Amazon Web Services</text>

  <rect x="420" y="118" width="360" height="40" rx="4" fill="#141618" stroke="#1E2124" stroke-width="1"/>
  <rect x="420" y="118" width="3" height="40" rx="1" fill="#FF9900"/>
  <text x="432" y="132" font-size="8.5" fill="#FF9900" font-weight="600">AWS Cloud Practitioner</text>
  <text x="432" y="147" font-size="7.5" fill="#7A808A">Amazon Web Services</text>

  <rect x="420" y="164" width="360" height="40" rx="4" fill="#141618" stroke="#1E2124" stroke-width="1"/>
  <rect x="420" y="164" width="3" height="40" rx="1" fill="#F80000"/>
  <text x="432" y="178" font-size="8.5" fill="#F80000" font-weight="600">OCI Foundations Associate</text>
  <text x="432" y="193" font-size="7.5" fill="#7A808A">Oracle Cloud Infrastructure</text>

  <rect x="420" y="210" width="360" height="40" rx="4" fill="#141618" stroke="#1E2124" stroke-width="1"/>
  <rect x="420" y="210" width="3" height="40" rx="1" fill="#58A6FF"/>
  <text x="432" y="224" font-size="8.5" fill="#58A6FF" font-weight="600">Scrum Foundation Professional</text>
  <text x="432" y="239" font-size="7.5" fill="#7A808A">CertiProf</text>

  <!-- Section label: Featured -->
  <text x="420" y="270" font-size="9" fill="#7A808A" letter-spacing="0.08em">// featured project</text>

  <!-- Featured project card -->
  <rect x="420" y="277" width="360" height="88" rx="4" fill="#141618" stroke="#1E2124" stroke-width="1"/>
  <rect x="420" y="277" width="3" height="88" rx="1" fill="#7B42F6"/>

  <text x="432" y="292" font-size="9" fill="#7B42F6" font-weight="600" letter-spacing="0.04em">aws-terraform-template</text>

  <text x="432" y="308" font-size="7.5" fill="#8A8F96">Production-ready AWS infra managed with Terraform.</text>
  <text x="432" y="320" font-size="7.5" fill="#8A8F96">VPC · ECS Fargate · EKS · RDS · ALB · ACM · Route53</text>
  <text x="432" y="332" font-size="7.5" fill="#8A8F96">CloudTrail · EFS · S3 · Lambda · SES · IAM · KMS</text>

  <rect x="432" y="342" width="60" height="14" rx="2" fill="#141618" stroke="#7B42F6" stroke-width="1"/>
  <text x="462" y="351" font-size="7" fill="#7B42F6" text-anchor="middle" letter-spacing="0.04em">Terraform</text>

  <rect x="498" y="342" width="54" height="14" rx="2" fill="#141618" stroke="#FF9900" stroke-width="1"/>
  <text x="525" y="351" font-size="7" fill="#FF9900" text-anchor="middle" letter-spacing="0.04em">AWS &gt;= 5.0</text>

  <rect x="558" y="342" width="48" height="14" rx="2" fill="#141618" stroke="#326CE5" stroke-width="1"/>
  <text x="582" y="351" font-size="7" fill="#326CE5" text-anchor="middle" letter-spacing="0.04em">EKS 1.35</text>

  <rect x="612" y="342" width="56" height="14" rx="2" fill="#141618" stroke="#1E2124" stroke-width="1"/>
  <text x="640" y="351" font-size="7" fill="#8A8F96" text-anchor="middle" letter-spacing="0.04em">sa-east-1</text>

  <!-- Bottom prompt -->
  <text x="432" y="372" font-size="7.5" fill="#7A808A">📍 Ponta Grossa, PR — Brazil · github.com/wtfbrubs</text>

</svg>
